<mxfile host="app.diagrams.net" modified="2023-09-02T07:01:53.807Z" agent="Mozilla/5.0 (Windows NT 10.0; Win64; x64) AppleWebKit/537.36 (KHTML, like Gecko) Chrome/116.0.0.0 Safari/537.36" version="21.7.2" etag="BaNJNeWHxAQDQ3uRRccg" type="github">
  <diagram name="페이지-1" id="M_Hv2YMyx0m63QHEpjhs">
    <mxGraphModel>
      <root>
        <mxCell id="0" />
        <mxCell id="1" parent="0" />
      </root>
    </mxGraphModel>
  </diagram>
</mxfile>
